<?xml version="1.0" standalone="no"?>
<!DOCTYPE svg PUBLIC "-//W3C//DTD SVG 20010904//EN"
 "http://www.w3.org/TR/2001/REC-SVG-20010904/DTD/svg10.dtd">
<svg version="1.0" xmlns="http://www.w3.org/2000/svg"
 width="4500.000000pt" height="4500.000000pt" viewBox="0 0 4500.000000 4500.000000"
 preserveAspectRatio="xMidYMid meet">
<metadata>
Created by potrace 1.14, written by Peter Selinger 2001-2017
</metadata>
<g transform="translate(0.000000,4500.000000) scale(0.100000,-0.100000)"
fill="#000000" stroke="none">
<path d="M11882 22538 l3 -8533 2155 0 2155 0 3 5905 2 5905 4485 -2 c2467 -1
4488 -4 4492 -6 5 -3 8 -2676 8 -5941 l0 -5936 530 2 530 3 1 5930 c1 3262 2
5935 3 5940 1 10 1600 10 1610 0 2 -3 4 -2659 5 -5902 l1 -5898 2625 0 2625 0
0 5290 c0 2910 -3 5317 -8 5350 -88 701 -687 1265 -1392 1310 -27 2 -608 4
-1290 5 -1101 2 -1234 3 -1185 16 693 182 1345 506 1905 948 244 192 532 469
725 696 25 29 50 58 55 64 134 150 400 535 522 756 16 30 39 71 50 90 31 55
97 187 138 275 57 123 70 154 104 240 18 44 36 89 41 100 67 152 224 703 246
865 2 19 6 42 9 50 2 8 6 29 9 45 11 72 19 121 22 139 2 10 6 44 9 75 4 31 8
67 10 81 2 14 6 59 10 100 4 41 9 89 11 105 2 17 7 128 10 248 l6 217 -2629 0
-2630 0 1 -2555 1 -2555 -810 2 -810 3 0 2513 c0 2235 -1 2513 -15 2516 -8 2
-247 3 -530 3 l-515 -2 0 -2517 0 -2518 -4492 0 -4493 0 0 2555 0 2555 -2160
0 -2160 0 2 -8532z"/>
</g>
</svg>
